<svg xmlns="http://www.w3.org/2000/svg" viewBox="0 0 117 36" version="1">
<style>
  .a{
    fill:#FFF;
  }
</style>
  <g style="fill-rule:evenodd;fill:none">
            <path d="M0 16.9C5.5 18.7 10 21 14.5 24.4 15 24.7 15 24.7 15.2 24.9 15.1 24.8 15 24.8 14.6 24.6 13.9 24.2 12.5 23.5 11.2 22.9 10 22.3 8.9 21.7 7.5 21.2 7.1 21.1 6.7 20.9 6.3 20.7 5.9 22.1 5.5 23.9 5.6 25.3 6 24.6 7.2 23.6 8.2 23.3 6.8 25.4 6.1 28.4 8.9 31.3 8.8 31.2 8.5 28.3 9.9 26.9 9.8 30.2 12.4 34 15.4 34.1 14.5 33 14.1 31.7 14.1 30.4 16.1 33.4 20.9 35.4 20.9 35.3 20.9 35.3 18 31.5 17.8 28.2 19.5 31.5 20.8 31.3 23.3 35.1 23.7 33.8 23.4 32.9 23 31.5 25.1 32.9 26.3 34.2 27.6 35.9 26.2 29.5 10.3 17.2 0 16.9" class="a"/>
            <path d="M9.7 7.1C9.4 7.3 9.4 7.8 9.7 8.1 9.9 8.5 10.4 8.7 10.6 8.5 10.9 8.3 10.9 7.8 10.7 7.5 10.4 7.1 10 6.9 9.7 7.1M16.3 5C16 5.1 15.8 5.4 16 5.8 16.1 6.2 16.4 6.5 16.7 6.4 17 6.3 17.1 5.9 17 5.5 16.9 5.2 16.6 4.9 16.3 5M18.6 7.7C18.9 7.6 19.4 7.4 19.8 7.3 20.3 7.1 20.6 7.1 20.7 7 20.9 7 20.9 7 20.9 6.6 21 6.2 21.1 5.5 21.2 4.8 21.3 4.2 21.4 3.6 21.5 3.1 21.7 2.7 21.7 2.4 21.8 2.2 21.8 2.1 21.8 2.1 21.8 2.1 21.8 2.1 21.8 2.1 21.6 2.3 21.5 2.6 21.1 3 20.7 3.4 20.3 3.8 19.8 4.1 19.5 4.3 19.2 4.5 18.9 4.6 18.7 4.6 18.4 4.5 18 4.4 17.7 4.2 17.4 3.9 17.1 3.5 16.8 2.9 16.6 2.4 16.3 1.7 16.2 1.2 16 0.7 15.9 0.5 15.9 0.4 15.9 0.2 15.9 0.2 15.9 0.2 15.9 0.2 15.9 0.2 15.8 0.6 15.7 1.1 15.5 1.9 15.3 2.6 15.1 3.4 14.9 4.1 14.7 4.7 14.5 5.2 14.2 5.6 13.8 5.9 13.5 6.2 13.1 6.3 12.7 6.4 12.4 6.4 12 6.4 11.5 6.1 11.1 5.9 10.6 5.5 10.1 5.1 9.6 4.6 9.2 4.2 8.9 3.8 8.5 3.4 8.2 3.1 8.1 2.9L7.9 2.7C7.9 2.7 7.9 2.7 8 3.2 8 3.6 8 4.4 8 5.1 7.9 5.7 7.8 6.2 7.6 6.6 7.4 6.9 7.2 7.2 6.9 7.4 6.6 7.6 6.3 7.6 5.9 7.6 5.6 7.6 5.3 7.6 5.2 7.5L5.1 7.5C5.1 7.5 5.1 7.5 5.9 8.2 6.7 9 8.4 10.5 9.2 11.2 10 11.9 10 11.9 10.3 11.9 10.6 11.8 11.2 11.7 11.5 11.7 11.8 11.6 11.8 11.6 11.8 11.4 11.9 11.2 12 10.8 12.3 10.4 12.5 10 12.9 9.6 13.3 9.4 13.6 9.1 14 9.1 14.5 9.1 14.9 9.1 15.3 9.1 15.5 9.1 15.7 9.1 15.7 9.1 15.9 9 16.1 8.9 16.5 8.7 16.9 8.5 17.2 8.4 17.5 8.2 17.8 8.1 18 8 18.2 7.9 18.6 7.7" class="a"/>
            <path d="M19.4 3.8C19.3 3.9 19.1 3.9 18.9 4 18.7 4 18.4 3.9 18.3 3.9 18.1 3.8 17.9 3.6 17.8 3.5 17.7 3.4 17.7 3.3 17.6 3.2 17.6 3.2 17.6 3.2 17.6 3.2 17.6 3.2 17.6 3.2 17.7 3.1 17.8 3 17.9 2.7 18.2 2.5 18.4 2.3 18.6 2.1 18.8 2 18.9 1.9 18.9 1.9 19 2.1 19.1 2.2 19.2 2.5 19.4 2.8 19.5 3.1 19.6 3.3 19.6 3.4L19.7 3.6C19.7 3.6 19.7 3.6 19.6 3.6 19.6 3.6 19.5 3.7 19.4 3.8" class="a"/>
            <path d="M13.9 4.7C13.7 4.9 13.5 5.2 13.3 5.4 13.1 5.6 12.9 5.7 12.7 5.7 12.4 5.7 12 5.7 11.7 5.6 11.5 5.4 11.2 5.3 11.1 5.2 11 5.1 11 5.1 11 5.1 11 5.1 11 5.1 11.1 4.9 11.1 4.7 11.2 4.4 11.4 4 11.5 3.5 11.8 3 11.9 2.8 12 2.5 12 2.5 12.2 2.7 12.4 2.8 12.9 3.1 13.2 3.4 13.6 3.7 13.8 4 14 4.1 14.1 4.3 14.1 4.3 14.1 4.3 14.1 4.3 14.1 4.3 14.1 4.3 14 4.4 14 4.5 13.9 4.7" class="a"/>
            <path d="M7.1 6.5C7.1 6.6 7 6.8 6.8 6.9 6.6 7 6.4 7.1 6.2 7.1 6 7.1 5.8 7 5.7 7 5.5 6.9 5.4 6.8 5.3 6.8 5.3 6.8 5.3 6.8 5.3 6.8 5.3 6.8 5.3 6.8 5.3 6.6 5.3 6.5 5.4 6.2 5.5 6 5.6 5.7 5.7 5.4 5.7 5.2 5.8 5.1 5.8 5.1 6 5.1 6.1 5.2 6.4 5.4 6.7 5.6 6.9 5.8 7.1 6 7.2 6.1L7.3 6.2C7.3 6.2 7.3 6.2 7.3 6.2 7.2 6.3 7.2 6.4 7.1 6.5" class="a"/>
            <path d="M23 14.9C23 14.9 23 14.9 22.9 14.8 22.5 14.7 21.8 14.7 20.7 14.1L20.4 14.3C21.1 14.6 21.1 15.1 21.1 15.7 21.4 15.3 22.3 15.1 23 15.1L23 14.9ZM17.8 12.4C17.2 11.4 15.4 11 14.3 11.2 14.5 11.4 14.9 11.6 14.9 12.1 14.9 13.6 9.7 13 8.6 14.7 10.7 13.3 17 14.1 15.5 11.7 16.4 11.6 17.5 12.1 17.8 12.4L17.8 12.4ZM18.7 9.8C19.1 9.6 19.6 9.4 20 9.3 20.4 9.1 20.6 9.1 20.8 9.1 20.9 9 20.9 9 21 9.2 21 9.3 21.2 9.6 21.3 9.8 21.3 10.1 21.3 10.4 21.3 10.6 21.3 10.8 21.2 10.9 21.2 10.9 21.2 11 21.2 11 21.1 10.8 21 10.6 20.7 10.2 20.6 10 20.5 9.8 20.5 9.8 20.3 9.8 20.1 9.8 19.7 9.9 19.2 10 18.7 10.1 18.1 10.2 17.7 10.3 17.4 10.4 17.4 10.4 17.6 10.3 17.9 10.2 18.3 10 18.7 9.8L18.7 9.8ZM18.6 16.5C16.3 18.1 17 21.8 19.4 22.4 21.4 22.8 22.5 22.5 24 24.3 24.3 24.7 24.4 25.3 25.4 24.5 25.1 23.6 25.7 22.9 25.7 22.1L25.7 22.1C25.7 22.1 25.7 22.2 25.6 22.2 25.4 22.4 25.1 22.5 24.7 22.5 24.7 22.2 24.6 22.2 24.5 22 23.9 22.2 23 21.9 22.9 21.3 22.9 21.3 22.9 21.2 22.9 21.2L23 21.2C23.4 21.2 23.7 21.2 24 21.2 24.2 21.2 24.5 21.2 24.8 21.2 25.1 21.1 25.4 21 25.5 20.9 25.7 20.8 25.7 20.8 25.7 20.7 25.6 20.7 25.5 20.7 25.3 20.7 25.1 20.7 24.8 20.7 24.5 20.6 24.2 20.6 23.9 20.5 23.7 20.4 23.4 20.3 23.2 20.1 23 20 23 20 23 19.9 23 19.9 23 19.7 23.2 19.5 23.4 19.3 23.6 19.1 23.7 19.1 24.1 19.2 24.5 19.3 25.1 19.7 25.4 19.9L25.6 19.5C26.2 19.9 26.3 20.6 26.2 21.2 26.8 21 27.6 19 27.3 18.1 27.5 17.9 27.6 17.9 27.8 17.6 27.9 17.5 28 17.2 28.1 17L23.9 14.7 24.2 14C20 11.8 24.2 11.1 21.4 8 21.1 7.6 16.9 9.4 15.9 10 12.4 9.5 12.7 12.2 12.4 12.3 9.7 12.7 7.9 13.4 7.5 15.6 8.4 15.2 8.9 15.2 9.9 15.4 9.9 15.4 9.9 15.4 9.9 15.4 9.2 15.9 8.7 16.4 8.2 17 6.1 16.4 2.9 16.6 1.9 16.7 13.2 18.6 22.7 25.6 28.1 31.8 27.6 29.4 25.6 27.5 23.8 26.1 21.1 24.2 19.8 23.5 17.8 22.1 16.7 21.2 16.5 20 16.6 19.3 16.7 16.7 18.6 16.5 18.6 16.5L18.6 16.5Z" class="a"/>
            <path d="M116.7 26.4L113.2 21.2 116.2 16.8 114.3 16.8 112.2 19.9 110.1 16.8 108.2 16.8 111.3 21.2 107.8 26.4 109.7 26.4 112.2 22.6 114.8 26.4 116.7 26.4ZM102.8 18.1L107.1 18.1 107.1 16.8 102.8 16.8 101.3 16.8 101.3 26.4 102.8 26.4 102.8 22.1 106.3 22.1 106.3 20.7 102.8 20.7 102.8 18.1ZM99.3 26.8L99.3 16.8 97.8 16.8 97.8 22.9 91.7 16.3 91.7 26.4 93.2 26.4 93.2 20.2 99.3 26.8ZM85.2 18.3C86.1 18.3 86.9 18.6 87.6 19.3 88.2 19.9 88.5 20.7 88.5 21.6 88.5 22.5 88.2 23.3 87.6 23.9 86.9 24.5 86.1 24.9 85.2 24.9 84.4 24.9 83.5 24.5 82.9 23.9 82.3 23.3 81.9 22.5 81.9 21.6 81.9 20.7 82.3 19.9 82.9 19.3 83.5 18.6 84.4 18.3 85.2 18.3L85.2 18.3ZM85.2 26.4C85.9 26.4 86.5 26.3 87.1 26 87.7 25.8 88.2 25.4 88.6 25 89.1 24.5 89.4 24 89.7 23.5 89.9 22.9 90 22.2 90 21.6 90 20.9 89.9 20.3 89.7 19.7 89.4 19.1 89.1 18.6 88.6 18.2 88.2 17.7 87.7 17.4 87.1 17.2 86.5 16.9 85.9 16.8 85.2 16.8 84.6 16.8 84 16.9 83.4 17.2 82.8 17.4 82.3 17.7 81.9 18.2 81.4 18.6 81.1 19.1 80.8 19.7 80.6 20.3 80.4 20.9 80.4 21.6 80.4 22.2 80.6 22.9 80.8 23.5 81.1 24 81.4 24.5 81.9 25 82.3 25.4 82.8 25.8 83.4 26 84 26.3 84.6 26.4 85.2 26.4L85.2 26.4ZM77.3 26.4L78.8 26.4 78.8 16.8 77.3 16.8 77.3 26.4ZM74.2 21.3C73.9 21.6 73.5 21.8 72.9 21.8L71.5 21.8 71.5 18.1 72.9 18.1C73.5 18.1 73.9 18.3 74.2 18.6 74.6 19 74.7 19.6 74.7 20 74.7 20.3 74.6 20.9 74.2 21.3L74.2 21.3ZM70 16.8L70 26.4 71.5 26.4 71.5 23.1 72.9 23.1C74.1 23.1 74.9 22.6 75.2 22.2 75.8 21.6 76 20.8 76 20 76 19.1 75.8 18.3 75.2 17.7 74.9 17.3 74.1 16.8 72.9 16.8L71.3 16.8 70 16.8ZM68 26.4L68 16.3 63.5 23.1 59 16.3 59 26.4 60.5 26.4 60.5 21.3 63.5 25.8 66.5 21.3 66.5 26.4 68 26.4ZM52.3 23L53.5 20.1 54.6 23 52.3 23ZM56 26.4L57.6 26.4 53.5 16.3 49.3 26.4 51 26.4 51.8 24.3 55.2 24.3 56 26.4ZM48 16.8L46.5 16.8 46.5 20.9 42.7 20.9 42.7 16.8 41.2 16.8 41.2 26.4 42.7 26.4 42.7 22.2 46.5 22.2 46.5 26.4 48 26.4 48 16.8ZM39.7 23.6C39.6 23.7 39.5 23.8 39.4 23.9 38.8 24.5 37.9 24.9 37.1 24.9 36.2 24.9 35.3 24.5 34.7 23.9 34.1 23.3 33.8 22.5 33.8 21.6 33.8 20.7 34.1 19.9 34.7 19.3 35.3 18.6 36.2 18.3 37.1 18.3 37.8 18.3 38.6 18.5 39.1 19L39.1 17.2C39.1 17.2 39 17.2 38.9 17.2 38.3 16.9 37.7 16.8 37.1 16.8 36.4 16.8 35.8 16.9 35.2 17.2 34.6 17.4 34.1 17.7 33.7 18.2 33.2 18.6 32.9 19.1 32.6 19.7 32.4 20.3 32.3 20.9 32.3 21.6 32.3 22.2 32.4 22.9 32.6 23.5 32.9 24 33.2 24.5 33.7 25 34.1 25.4 34.6 25.8 35.2 26 35.8 26.3 36.4 26.4 37.1 26.4 37.7 26.4 38.3 26.3 38.9 26 39.2 25.9 39.5 25.8 39.7 25.6L39.7 23.6Z" class="a"/>
            <path d="M104.2 30.2L103.1 30.2 103.1 30.7 103.7 30.7 103.7 31.2 103.7 31.2C103.6 31.3 103.6 31.3 103.5 31.3 103.5 31.3 103.5 31.3 103.5 31.3 103.5 31.3 103.5 31.3 103.5 31.3 103.5 31.3 103.5 31.3 103.5 31.3L103.5 31.3C103.5 31.3 103.5 31.3 103.5 31.3 103.5 31.3 103.5 31.3 103.5 31.3 103.4 31.3 103.4 31.3 103.4 31.3L103.4 31.3 103.3 31.3C103.3 31.3 103.3 31.3 103.3 31.4L103.3 31.4 103.3 31.4 103.3 31.4 103.3 31.4C103.3 31.4 103.3 31.4 103.3 31.4L103.2 31.4C102.9 31.4 102.7 31.2 102.5 31 102.3 30.9 102.3 30.8 102.2 30.6 102.2 30.5 102.2 30.4 102.2 30.3 102.2 30.3 102.2 30.3 102.2 30.3 102.2 30.3 102.2 30.3 102.2 30.2L102.2 30.2C102.2 30.1 102.2 30.1 102.2 30.1 102.2 30.1 102.2 30.1 102.2 30.1 102.2 29.9 102.3 29.8 102.3 29.7 102.3 29.7 102.3 29.7 102.3 29.7 102.3 29.7 102.3 29.7 102.4 29.7 102.4 29.7 102.4 29.7 102.4 29.7 102.4 29.6 102.4 29.6 102.4 29.6 102.4 29.6 102.4 29.6 102.4 29.6 102.4 29.6 102.5 29.6 102.5 29.5 102.5 29.5 102.6 29.4 102.7 29.4 102.7 29.4 102.7 29.4 102.7 29.4 102.8 29.3 103 29.2 103.2 29.2L103.3 29.2 103.3 29.2 103.3 29.2 103.3 29.2C103.3 29.2 103.3 29.2 103.3 29.2L103.3 29.2 103.3 29.2C103.3 29.2 103.4 29.2 103.4 29.2L103.4 29.2C103.4 29.2 103.4 29.2 103.4 29.2L103.4 29.2C103.4 29.2 103.4 29.2 103.4 29.2 103.5 29.3 103.5 29.3 103.5 29.3 103.5 29.3 103.5 29.3 103.5 29.3L103.5 29.3C103.5 29.3 103.5 29.3 103.5 29.3 103.6 29.3 103.6 29.3 103.7 29.3 103.8 29.4 103.8 29.4 103.9 29.5L103.9 28.9 103.9 28.9C103.9 28.9 103.9 28.9 103.9 28.9 103.9 28.9 103.9 28.9 103.9 28.9 103.7 28.8 103.5 28.8 103.3 28.7 103.3 28.7 103.3 28.7 103.3 28.7L103.3 28.7 103.3 28.7 103.3 28.7 103.2 28.7C103 28.7 102.8 28.8 102.6 28.9 102.4 28.9 102.3 29.1 102.1 29.2 102 29.3 101.9 29.5 101.8 29.7 101.7 29.9 101.7 30 101.7 30.2L101.7 30.3C101.7 30.3 101.7 30.4 101.7 30.4 101.7 30.6 101.7 30.8 101.8 30.9 101.9 31.1 102 31.2 102.1 31.4 102.2 31.5 102.4 31.6 102.5 31.6 102.5 31.7 102.6 31.7 102.6 31.7 102.6 31.7 102.7 31.7 102.7 31.7 102.7 31.7 102.7 31.8 102.7 31.8L102.7 31.8C102.9 31.8 103.1 31.8 103.2 31.8L103.3 31.8 103.3 31.8 103.3 31.8 103.3 31.8C103.5 31.8 103.7 31.8 103.9 31.7L103.9 31.7C103.9 31.7 103.9 31.7 103.9 31.7 103.9 31.7 103.9 31.7 103.9 31.7L103.9 31.7C103.9 31.7 103.9 31.7 103.9 31.7 103.9 31.7 103.9 31.7 104 31.7 104 31.7 104 31.7 104 31.7 104 31.6 104 31.6 104 31.6 104 31.6 104 31.6 104 31.6 104 31.6 104 31.6 104 31.6 104 31.6 104 31.6 104 31.6 104 31.6 104 31.6 104 31.6 104 31.6 104.1 31.6 104.1 31.6 104.1 31.6 104.1 31.6 104.1 31.6 104.1 31.6 104.1 31.6 104.1 31.6L104.2 31.5 104.2 30.7 104.2 30.2ZM100.3 32L100.3 28.7 99.8 28.7 99.8 30.7 97.8 28.6 97.8 31.8 98.3 31.8 98.3 29.9 100.3 32ZM95.8 31.8L96.3 31.8 96.3 28.7 95.8 28.7 95.8 31.8ZM94.5 31.8L93.2 30.2 94.3 28.7 93.7 28.7 92.7 30 92.7 28.7 92.2 28.7 92.2 31.8 92.7 31.8 92.7 30.4 93.9 31.8 94.5 31.8ZM89.5 30.8C89.5 30.6 89.4 30.5 89.2 30.4 89.2 30.3 89.1 30.2 89 30.2L88.5 29.7C88.4 29.5 88.4 29.4 88.4 29.4 88.4 29.3 88.5 29.2 88.6 29.2 88.7 29.2 88.9 29.2 89 29.4L89.4 29.1C89.3 28.9 89.1 28.8 89 28.8 88.8 28.7 88.7 28.7 88.5 28.7 88.4 28.7 88.2 28.8 88.1 28.9 88 29 88 29.1 87.9 29.2 87.9 29.4 87.9 29.5 87.9 29.6 88 29.8 88 29.9 88.2 30L88.5 30.4C88.6 30.4 88.8 30.6 88.9 30.7 89 30.8 89.1 30.9 89.1 31.1 89 31.2 88.9 31.3 88.7 31.3 88.6 31.4 88.5 31.4 88.5 31.3 88.3 31.3 88.2 31.2 88.1 31.1L87.8 31.4C87.9 31.6 88.1 31.7 88.3 31.8 88.4 31.8 88.5 31.8 88.6 31.8 88.7 31.8 88.8 31.8 88.8 31.8 89.2 31.8 89.4 31.5 89.5 31.2 89.6 31.1 89.6 30.9 89.5 30.8L89.5 30.8ZM85.9 31.8L86.4 31.8 86.4 28.7 85.9 28.7 85.9 31.8ZM83.3 28.7L81.1 28.7 81.1 29.2 82 29.2 82 31.8 82.5 31.8 82.5 29.2 83.3 29.2 83.3 28.7ZM79.8 32L79.8 28.7 79.3 28.7 79.3 30.7 77.4 28.6 77.4 31.8 77.9 31.8 77.9 29.9 79.8 32ZM74.5 29.2L75.9 29.2 75.9 28.7 74.5 28.7 74.1 28.7 74.1 31.8 74.5 31.8 75.9 31.8 75.9 31.4 74.5 31.4 74.5 30.4 75.7 30.4 75.7 30 74.5 30 74.5 29.2ZM72 31.8L72.5 31.8 72.5 28.7 72 28.7 72 31.8ZM70.8 31.4L69.5 31.4 69.5 28.7 69 28.7 69 31.8 69.5 31.8 70.8 31.8 70.8 31.4ZM67.6 30.9C67.6 31 67.5 31 67.5 31 67.3 31.2 67 31.4 66.7 31.4 66.5 31.4 66.2 31.2 66 31 65.8 30.8 65.7 30.6 65.7 30.3 65.7 30 65.8 29.7 66 29.5 66.2 29.3 66.5 29.2 66.7 29.2 67 29.2 67.2 29.3 67.4 29.5L67.4 28.9C67.4 28.9 67.4 28.9 67.3 28.9 67.2 28.8 67 28.7 66.7 28.7 66.5 28.7 66.3 28.8 66.1 28.9 66 28.9 65.8 29.1 65.7 29.2 65.5 29.3 65.4 29.5 65.3 29.7 65.2 29.9 65.2 30.1 65.2 30.3 65.2 30.5 65.2 30.7 65.3 30.9 65.4 31.1 65.5 31.2 65.7 31.4 65.8 31.5 66 31.6 66.1 31.7 66.3 31.8 66.5 31.8 66.7 31.8 67 31.8 67.2 31.8 67.3 31.7 67.4 31.7 67.5 31.6 67.6 31.6L67.6 30.9ZM61.3 29.2L62.6 29.2 62.6 28.7 61.2 28.7 60.8 28.7 60.8 31.8 61.2 31.8 62.6 31.8 62.6 31.4 61.3 31.4 61.3 30.4 62.4 30.4 62.4 30 61.3 30 61.3 29.2ZM59.2 28.7L58.8 28.7 58.8 30.1 57.5 30.1 57.5 28.7 57 28.7 57 31.8 57.5 31.8 57.5 30.5 58.8 30.5 58.8 31.8 59.2 31.8 59.2 28.7ZM55.7 28.7L53.5 28.7 53.5 29.2 54.4 29.2 54.4 31.8 54.9 31.8 54.9 29.2 55.7 29.2 55.7 28.7ZM49.6 29.2L51 29.2 51 28.7 49.6 28.7 49.2 28.7 49.2 31.8 49.6 31.8 51 31.8 51 31.4 49.6 31.4 49.6 30.4 50.8 30.4 50.8 30 49.6 30 49.6 29.2ZM46.2 30.4L46.2 29.2 46.6 29.2C46.8 29.2 47 29.2 47.1 29.3 47.2 29.5 47.2 29.6 47.2 29.8 47.2 29.9 47.2 30.1 47.1 30.2 47 30.3 46.8 30.4 46.6 30.4L46.2 30.4ZM47.1 30.7C47.2 30.7 47.3 30.6 47.4 30.5 47.6 30.3 47.7 30.1 47.7 29.8 47.7 29.5 47.6 29.2 47.4 29.1 47.3 28.9 47.1 28.7 46.6 28.7L46.1 28.7 45.7 28.7 45.7 31.8 46.2 31.8 46.2 30.8 46.6 30.8 47.3 31.8 47.9 31.8 47.1 30.7ZM42.9 29.2L44.3 29.2 44.3 28.7 42.9 28.7 42.4 28.7 42.4 31.8 42.9 31.8 44.3 31.8 44.3 31.4 42.9 31.4 42.9 30.4 44 30.4 44 30 42.9 30 42.9 29.2ZM40.9 28.7L40.4 28.7 40.4 30.1 39.2 30.1 39.2 28.7 38.7 28.7 38.7 31.8 39.2 31.8 39.2 30.5 40.4 30.5 40.4 31.8 40.9 31.8 40.9 28.7ZM37.3 28.7L36.8 28.7 36 30.8 35.4 29.5 35.1 28.9 34.9 29.5 34.4 30.8 33.5 28.7 33 28.7 34.4 32 35.2 30.1 36 32 37.3 28.7Z" class="a"/>
  </g>
</svg>