<svg xmlns="http://www.w3.org/2000/svg" viewBox="0 0 85 16">
  <g fill="none">
    <g fill="#004385">
          <path d="M84.7 10.4L81.2 5.2 84.2 0.8 82.3 0.8 80.2 3.9 78.1 0.8 76.2 0.8 79.3 5.2 75.8 10.4 77.7 10.4 80.2 6.6 82.8 10.4 84.7 10.4ZM70.8 2.1L75.1 2.1 75.1 0.8 70.8 0.8 69.3 0.8 69.3 10.4 70.8 10.4 70.8 6.1 74.3 6.1 74.3 4.7 70.8 4.7 70.8 2.1ZM67.3 10.8L67.3 0.8 65.8 0.8 65.8 6.9 59.7 0.3 59.7 10.4 61.2 10.4 61.2 4.2 67.3 10.8ZM53.2 2.3C54.1 2.3 54.9 2.6 55.6 3.3 56.2 3.9 56.5 4.7 56.5 5.6 56.5 6.5 56.2 7.3 55.6 7.9 54.9 8.5 54.1 8.9 53.2 8.9 52.4 8.9 51.5 8.5 50.9 7.9 50.3 7.3 49.9 6.5 49.9 5.6 49.9 4.7 50.3 3.9 50.9 3.3 51.5 2.6 52.4 2.3 53.2 2.3L53.2 2.3ZM53.2 10.4C53.9 10.4 54.5 10.3 55.1 10 55.7 9.8 56.2 9.4 56.6 9 57.1 8.5 57.4 8 57.7 7.5 57.9 6.9 58 6.2 58 5.6 58 4.9 57.9 4.3 57.7 3.7 57.4 3.1 57.1 2.6 56.6 2.2 56.2 1.7 55.7 1.4 55.1 1.2 54.5 0.9 53.9 0.8 53.2 0.8 52.6 0.8 52 0.9 51.4 1.2 50.8 1.4 50.3 1.7 49.9 2.2 49.4 2.6 49.1 3.1 48.8 3.7 48.6 4.3 48.4 4.9 48.4 5.6 48.4 6.2 48.6 6.9 48.8 7.5 49.1 8 49.4 8.5 49.9 9 50.3 9.4 50.8 9.8 51.4 10 52 10.3 52.6 10.4 53.2 10.4L53.2 10.4ZM45.3 10.4L46.8 10.4 46.8 0.8 45.3 0.8 45.3 10.4ZM42.2 5.3C41.9 5.6 41.5 5.8 40.9 5.8L39.5 5.8 39.5 2.1 40.9 2.1C41.5 2.1 41.9 2.3 42.2 2.6 42.6 3 42.7 3.6 42.7 4 42.7 4.3 42.6 4.9 42.2 5.3L42.2 5.3ZM38 0.8L38 10.4 39.5 10.4 39.5 7.1 40.9 7.1C42.1 7.1 42.9 6.6 43.2 6.2 43.8 5.6 44 4.8 44 4 44 3.1 43.8 2.3 43.2 1.7 42.9 1.3 42.1 0.8 40.9 0.8L39.3 0.8 38 0.8ZM36 10.4L36 0.3 31.5 7.1 27 0.3 27 10.4 28.5 10.4 28.5 5.3 31.5 9.8 34.5 5.3 34.5 10.4 36 10.4ZM20.3 7L21.5 4.1 22.6 7 20.3 7ZM24 10.4L25.6 10.4 21.5 0.3 17.3 10.4 19 10.4 19.8 8.3 23.2 8.3 24 10.4ZM16 0.8L14.5 0.8 14.5 4.9 10.7 4.9 10.7 0.8 9.2 0.8 9.2 10.4 10.7 10.4 10.7 6.2 14.5 6.2 14.5 10.4 16 10.4 16 0.8ZM7.7 7.6C7.6 7.7 7.5 7.8 7.4 7.9 6.8 8.5 5.9 8.9 5.1 8.9 4.2 8.9 3.3 8.5 2.7 7.9 2.1 7.3 1.8 6.5 1.8 5.6 1.8 4.7 2.1 3.9 2.7 3.3 3.3 2.6 4.2 2.3 5.1 2.3 5.8 2.3 6.6 2.5 7.1 3L7.1 1.2C7.1 1.2 7 1.2 6.9 1.2 6.3 0.9 5.7 0.8 5.1 0.8 4.4 0.8 3.8 0.9 3.2 1.2 2.6 1.4 2.1 1.7 1.7 2.2 1.2 2.6 0.9 3.1 0.6 3.7 0.4 4.3 0.3 4.9 0.3 5.6 0.3 6.2 0.4 6.9 0.6 7.5 0.9 8 1.2 8.5 1.7 9 2.1 9.4 2.6 9.8 3.2 10 3.8 10.3 4.4 10.4 5.1 10.4 5.7 10.4 6.3 10.3 6.9 10 7.2 9.9 7.5 9.8 7.7 9.6L7.7 7.6Z"/>
          <path d="M72.2 14.2L71.1 14.2 71.1 14.7 71.7 14.7 71.7 15.2 71.7 15.2C71.6 15.3 71.6 15.3 71.5 15.3 71.5 15.3 71.5 15.3 71.5 15.3 71.5 15.3 71.5 15.3 71.5 15.3 71.5 15.3 71.5 15.3 71.5 15.3L71.5 15.3C71.5 15.3 71.5 15.3 71.5 15.3 71.5 15.3 71.5 15.3 71.5 15.3 71.4 15.3 71.4 15.3 71.4 15.3L71.4 15.3 71.3 15.3C71.3 15.3 71.3 15.3 71.3 15.4L71.3 15.4 71.3 15.4 71.3 15.4 71.3 15.4C71.3 15.4 71.3 15.4 71.3 15.4L71.2 15.4C70.9 15.4 70.7 15.2 70.5 15 70.3 14.9 70.3 14.8 70.2 14.6 70.2 14.5 70.2 14.4 70.2 14.3 70.2 14.3 70.2 14.3 70.2 14.3 70.2 14.3 70.2 14.3 70.2 14.2L70.2 14.2C70.2 14.1 70.2 14.1 70.2 14.1 70.2 14.1 70.2 14.1 70.2 14.1 70.2 13.9 70.3 13.8 70.3 13.7 70.3 13.7 70.3 13.7 70.3 13.7 70.3 13.7 70.3 13.7 70.4 13.7 70.4 13.7 70.4 13.7 70.4 13.7 70.4 13.6 70.4 13.6 70.4 13.6 70.4 13.6 70.4 13.6 70.4 13.6 70.4 13.6 70.5 13.6 70.5 13.5 70.5 13.5 70.6 13.4 70.7 13.4 70.7 13.4 70.7 13.4 70.7 13.4 70.8 13.3 71 13.2 71.2 13.2L71.3 13.2 71.3 13.2 71.3 13.2 71.3 13.2C71.3 13.2 71.3 13.2 71.3 13.2L71.3 13.2 71.3 13.2C71.3 13.2 71.4 13.2 71.4 13.2L71.4 13.2C71.4 13.2 71.4 13.2 71.4 13.2L71.4 13.2C71.4 13.2 71.4 13.2 71.4 13.2 71.5 13.3 71.5 13.3 71.5 13.3 71.5 13.3 71.5 13.3 71.5 13.3L71.5 13.3C71.5 13.3 71.5 13.3 71.5 13.3 71.6 13.3 71.6 13.3 71.7 13.3 71.8 13.4 71.8 13.4 71.9 13.5L71.9 12.9 71.9 12.9C71.9 12.9 71.9 12.9 71.9 12.9 71.9 12.9 71.9 12.9 71.9 12.9 71.7 12.8 71.5 12.8 71.3 12.7 71.3 12.7 71.3 12.7 71.3 12.7L71.3 12.7 71.3 12.7 71.3 12.7 71.2 12.7C71 12.7 70.8 12.8 70.6 12.9 70.4 12.9 70.3 13.1 70.1 13.2 70 13.3 69.9 13.5 69.8 13.7 69.7 13.9 69.7 14 69.7 14.2L69.7 14.3C69.7 14.3 69.7 14.4 69.7 14.4 69.7 14.6 69.7 14.8 69.8 14.9 69.9 15.1 70 15.2 70.1 15.4 70.2 15.5 70.4 15.6 70.5 15.6 70.5 15.7 70.6 15.7 70.6 15.7 70.6 15.7 70.7 15.7 70.7 15.7 70.7 15.7 70.7 15.8 70.7 15.8L70.7 15.8C70.9 15.8 71.1 15.8 71.2 15.8L71.3 15.8 71.3 15.8 71.3 15.8 71.3 15.8C71.5 15.8 71.7 15.8 71.9 15.7L71.9 15.7C71.9 15.7 71.9 15.7 71.9 15.7 71.9 15.7 71.9 15.7 71.9 15.7L71.9 15.7C71.9 15.7 71.9 15.7 71.9 15.7 71.9 15.7 71.9 15.7 72 15.7 72 15.7 72 15.7 72 15.7 72 15.6 72 15.6 72 15.6 72 15.6 72 15.6 72 15.6 72 15.6 72 15.6 72 15.6 72 15.6 72 15.6 72 15.6 72 15.6 72 15.6 72 15.6 72 15.6 72.1 15.6 72.1 15.6 72.1 15.6 72.1 15.6 72.1 15.6 72.1 15.6 72.1 15.6 72.1 15.6L72.2 15.5 72.2 14.7 72.2 14.2ZM68.3 16L68.3 12.7 67.8 12.7 67.8 14.7 65.8 12.6 65.8 15.8 66.3 15.8 66.3 13.9 68.3 16ZM63.8 15.8L64.3 15.8 64.3 12.7 63.8 12.7 63.8 15.8ZM62.5 15.8L61.2 14.2 62.3 12.7 61.7 12.7 60.7 14 60.7 12.7 60.2 12.7 60.2 15.8 60.7 15.8 60.7 14.4 61.9 15.8 62.5 15.8ZM57.5 14.8C57.5 14.6 57.4 14.5 57.2 14.4 57.2 14.3 57.1 14.2 57 14.2L56.5 13.7C56.4 13.5 56.4 13.4 56.4 13.4 56.4 13.3 56.5 13.2 56.6 13.2 56.7 13.2 56.9 13.2 57 13.4L57.4 13.1C57.3 12.9 57.1 12.8 57 12.8 56.8 12.7 56.7 12.7 56.5 12.7 56.4 12.7 56.2 12.8 56.1 12.9 56 13 56 13.1 55.9 13.2 55.9 13.4 55.9 13.5 55.9 13.6 56 13.8 56 13.9 56.2 14L56.5 14.4C56.6 14.4 56.8 14.6 56.9 14.7 57 14.8 57.1 14.9 57.1 15.1 57 15.2 56.9 15.3 56.7 15.3 56.6 15.4 56.5 15.4 56.5 15.3 56.3 15.3 56.2 15.2 56.1 15.1L55.8 15.4C55.9 15.6 56.1 15.7 56.3 15.8 56.4 15.8 56.5 15.8 56.6 15.8 56.7 15.8 56.8 15.8 56.8 15.8 57.2 15.8 57.4 15.5 57.5 15.2 57.6 15.1 57.6 14.9 57.5 14.8L57.5 14.8ZM53.9 15.8L54.4 15.8 54.4 12.7 53.9 12.7 53.9 15.8ZM51.3 12.7L49.1 12.7 49.1 13.2 50 13.2 50 15.8 50.5 15.8 50.5 13.2 51.3 13.2 51.3 12.7ZM47.8 16L47.8 12.7 47.3 12.7 47.3 14.7 45.4 12.6 45.4 15.8 45.9 15.8 45.9 13.9 47.8 16ZM42.5 13.2L43.9 13.2 43.9 12.7 42.5 12.7 42.1 12.7 42.1 15.8 42.5 15.8 43.9 15.8 43.9 15.4 42.5 15.4 42.5 14.4 43.7 14.4 43.7 14 42.5 14 42.5 13.2ZM40 15.8L40.5 15.8 40.5 12.7 40 12.7 40 15.8ZM38.8 15.4L37.5 15.4 37.5 12.7 37 12.7 37 15.8 37.5 15.8 38.8 15.8 38.8 15.4ZM35.6 14.9C35.6 15 35.5 15 35.5 15 35.3 15.2 35 15.4 34.7 15.4 34.5 15.4 34.2 15.2 34 15 33.8 14.8 33.7 14.6 33.7 14.3 33.7 14 33.8 13.7 34 13.5 34.2 13.3 34.5 13.2 34.7 13.2 35 13.2 35.2 13.3 35.4 13.5L35.4 12.9C35.4 12.9 35.4 12.9 35.3 12.9 35.2 12.8 35 12.7 34.7 12.7 34.5 12.7 34.3 12.8 34.1 12.9 34 12.9 33.8 13.1 33.7 13.2 33.5 13.3 33.4 13.5 33.3 13.7 33.2 13.9 33.2 14.1 33.2 14.3 33.2 14.5 33.2 14.7 33.3 14.9 33.4 15.1 33.5 15.2 33.7 15.4 33.8 15.5 34 15.6 34.1 15.7 34.3 15.8 34.5 15.8 34.7 15.8 35 15.8 35.2 15.8 35.3 15.7 35.4 15.7 35.5 15.6 35.6 15.6L35.6 14.9ZM29.3 13.2L30.6 13.2 30.6 12.7 29.2 12.7 28.8 12.7 28.8 15.8 29.2 15.8 30.6 15.8 30.6 15.4 29.3 15.4 29.3 14.4 30.4 14.4 30.4 14 29.3 14 29.3 13.2ZM27.2 12.7L26.8 12.7 26.8 14.1 25.5 14.1 25.5 12.7 25 12.7 25 15.8 25.5 15.8 25.5 14.5 26.8 14.5 26.8 15.8 27.2 15.8 27.2 12.7ZM23.7 12.7L21.5 12.7 21.5 13.2 22.4 13.2 22.4 15.8 22.9 15.8 22.9 13.2 23.7 13.2 23.7 12.7ZM17.6 13.2L19 13.2 19 12.7 17.6 12.7 17.2 12.7 17.2 15.8 17.6 15.8 19 15.8 19 15.4 17.6 15.4 17.6 14.4 18.8 14.4 18.8 14 17.6 14 17.6 13.2ZM14.2 14.4L14.2 13.2 14.6 13.2C14.8 13.2 15 13.2 15.1 13.3 15.2 13.5 15.2 13.6 15.2 13.8 15.2 13.9 15.2 14.1 15.1 14.2 15 14.3 14.8 14.4 14.6 14.4L14.2 14.4ZM15.1 14.7C15.2 14.7 15.3 14.6 15.4 14.5 15.6 14.3 15.7 14.1 15.7 13.8 15.7 13.5 15.6 13.2 15.4 13.1 15.3 12.9 15.1 12.7 14.6 12.7L14.1 12.7 13.7 12.7 13.7 15.8 14.2 15.8 14.2 14.8 14.6 14.8 15.3 15.8 15.9 15.8 15.1 14.7ZM10.9 13.2L12.3 13.2 12.3 12.7 10.9 12.7 10.4 12.7 10.4 15.8 10.9 15.8 12.3 15.8 12.3 15.4 10.9 15.4 10.9 14.4 12 14.4 12 14 10.9 14 10.9 13.2ZM8.9 12.7L8.4 12.7 8.4 14.1 7.2 14.1 7.2 12.7 6.7 12.7 6.7 15.8 7.2 15.8 7.2 14.5 8.4 14.5 8.4 15.8 8.9 15.8 8.9 12.7ZM5.3 12.7L4.8 12.7 4 14.8 3.4 13.5 3.1 12.9 2.9 13.5 2.4 14.8 1.5 12.7 1 12.7 2.4 16 3.2 14.1 4 16 5.3 12.7Z"/>
    </g>
  </g>
</svg>