<svg xmlns="http://www.w3.org/2000/svg" width="20" height="20" viewBox="0 0 35 31">
  <path fill="#004385" d="M17.497078 4.44368383l2.5016367-2.50163353C20.6404362 1.30403817 21.4915568.951 22.394.951c.906087 0 1.7594141.35270852 2.3966194.9923806l8.3674447 8.3674451C33.7961776 10.9501759 34.15 11.8035122 34.15 12.706c0 .906742-.3542344 1.7596369-.9953806 2.3946194l-2.7206195 2.7206195c.360115.9803146.2241532 1.9061172-.4302584 2.6811661-.5307907.6259084-1.2091702.9508536-1.9640148 1.0449874-.0743847.6769479-.3804139 1.3374241-.84525 1.7943598-.4013216.3976056-.9857669.6822068-1.5963883.7996552.0251135.7731929-.2215815 1.4952544-.83111 2.1098408-.5644676.5703069-1.3164526.8498868-2.0872042.8127364-.1670639.5505794-.5135056 1.053995-1.0516962 1.4632052-.6632898.4996208-1.32104.7338102-1.946078.7338102-.0943564 0-.1864726-.0051642-.276193-.0152134-.6307634.5588548-1.3554522.8022134-2.108807.8022134-.4076543 0-.7837626-.0714606-1.0810147-.1731783-1.0122116-.3364315-1.6055905-1.0386801-1.9372911-2.0297514-.7108514-.1694571-1.4255196-.5572472-1.9314128-1.0233767-.4700932-.4318184-.8219889-1.067906-.9822261-1.7300303-.6193043-.1249897-1.1928191-.4182322-1.61834713-.8384969-.4876158-.4489928-.84571977-1.1652419-1.00687292-1.8993659-.58226446-.1307197-1.13786365-.426902-1.60055938-.8578175-.68016067-.6353988-1.07899373-1.4830048-1.1313965-2.3846638l-4.16228445-4.0044856C.51984564 13.7823199.5171649 11.6315963 1.8383806 10.3103806l8.367-8.367c1.3208767-1.32087672 3.4726001-1.32087672 4.7923165.00007765l2.4993809 2.50022558zM32.85 12.706c0-.5577475-.2169259-1.0809218-.6116194-1.4763806l-8.3678864-8.36788814C23.4769115 2.46662606 22.9552356 2.251 22.394 2.251c-.5580549 0-1.0799294.21646947-1.4773806.6116194l-3.4196971 3.41969707-.4596194-.45977472-2.9591377-2.96013787c-.8121459-.81290776-2.1404225-.81290776-2.9535458.00021553l-8.367 8.367c-.81294916.8129492-.81129478 2.1402289-.00197388 2.9489592l4.55481758 4.3819692-.0076969.286885c-.01711545.6379391.23996873 1.2464466.72322684 1.6979022.38183215.3556053.85274643.5613914 1.31071445.5823442l.56772014.0259742.05004707.5661061c.05310928.6007438.33125738 1.2625686.68904278 1.5925399.3274492.3230736.8094394.5245447 1.3103355.5452555l.5756865.0238033.0454363.574384c.0412757.5217873.304618 1.0897021.6524726 1.4092356.4158659.3831778 1.0771566.7069396 1.6287412.763401l.4547832.0465526.1099485.4437412c.20303.8194081.5501752 1.3048288 1.2104757 1.5243208.1751926.0599343.4124151.1050066.665603.1050066.4515893 0 .8685233-.1400111 1.2143806-.4446194.0090716-.0090716.0456718-.0572618.1029091-.1410441l.2761838-.4042689.4647974.153864c.0945821.0313099.2029699.0490684.3267291.0490684.3335631 0 .7194522-.1373943 1.1615794-.4704169.4449472-.3383179.6421116-.7446857.653635-1.1932748l.0220811-.8595882.8209795.2556796c.5502157.1713549 1.1084926.0416846 1.5032103-.3571159.4451588-.4488531.5399092-.9879087.3875394-1.6404923l-.1966637-.84229.8637525.0453943c.500899.0263246 1.0793434-.1813785 1.3832206-.482435.3371389-.3314125.53399-.9097156.4608639-1.3969954l-.1172242-.7811295.7890866.035314c.6596779.0295227 1.2058659-.1494168 1.5972962-.610989.394558-.467294.4271345-.9937553.0706847-1.6921836l-.2148263-.4209311.3341656-.3341656 3.0362214-3.0362107c.396368-.3925641.612398-.9127025.612398-1.4731699zM8.59857936 19.9348817c.16559545.1544413.35227443.2614296.53724947.3158787l2.04164177-3.3756428c.0367702-.0689441.0826251-.2008341.0965974-.3658376.0220555-.2604612-.0498399-.5032707-.2637144-.7420149-.1824771-.2032271-.3577685-.2897876-.5621065-.2915076-.1199831-.0032782-.2477559.0369724-.3307646.0869329l-1.97969427 3.3916342c.01363488.3662435.17355112.7123845.46079113.9805571zm-.8869107.950468c-.60627853-.566033-.9210403-1.3452432-.86934425-2.1538224l.00980907-.1534234 2.20449968-3.7767733.1166105-.1463472c.31582192-.2963268.80946286-.4924307 1.29783437-.4789636.5750286.0044924 1.0900198.2587998 1.507065.7232688.8115812.9059512.7301059 1.8681198.3291148 2.6179811L9.8541979 21.575125l-.3477165.0152507c-.63873727.0280148-1.2870296-.2314459-1.79481273-.705026zm3.49392884 1.8058455l.0186878.0178551c.1407354.1399219.3319156.238977.5435536.2848062l2.28649-3.709235c.0679014-.2513963.0246222-.5622987-.2645853-.8476511-.2040194-.2019376-.5681705-.2338892-.9722161-.1450016l-2.0274129 3.3511625c.0270878.3613113.218519.8672285.4154829 1.0480639zm-1.71419202-1.271917l.0104164-.1581397 2.46461662-4.0738277.233103-.0739107c.9111069-.2888876 1.8110578-.2869494 2.5039829.3989062.4150607.4095266.6260439.8939381.6649393 1.4000081.0255841.3328763-.02393.6276799-.1048889.8592222l-.0602557.1265469-2.7176151 4.4086232-.3458281.013778c-.6818638.0271659-1.351418-.2167773-1.8234249-.6808971-.52664887-.4920668-.87274714-1.496112-.82504552-2.2203094zm4.30428322 3.8330007c.2089478.1919113.4999727.3576218.776965.4558605l2.1257701-3.6481014c.1039904-.337116.0904017-.7390861-.1619199-1.0077932-.3386602-.3617215-.5886758-.467362-.7852625-.4480451l-2.3378033 3.7918476c.0215756.292832.1856903.6757489.3822506.8562316zm1.0784895-5.70261l.1770995-.0822247c.7079095-.3286723 1.6022209-.192342 2.4335609.6956098.3960404.4217573.5684023.9397889.5696597 1.4903364.000784.3432738-.0625114.6504812-.1474123.8915392l-.0514764.1113236-2.6081771 4.4759754-.4136283-.0391157c-.6467216-.0611588-1.4025454-.4104304-1.9174255-.8833299-.5267246-.4836416-.8642555-1.3619392-.7963803-2.0661446l.0144832-.150263 2.7396966-4.4437065zm2.0197375 8.2998096c.3536423.1188957.7552213.1027815 1.0371925-.1457644.211786-.2167303 1.2418871-2.4583377 1.3962969-3.181105-.0463609-.2991364-.1581118-.6374083-.3247305-.8420934-.1364438-.1661493-.4171111-.2959695-.6012174-.3052187l-2.1336231 3.6610729c.145286.5279039.3193254.7106533.6260816.8131086zm-.4130565 1.2326325c-.8105652-.2707243-1.2894621-.8675871-1.5414826-2.0055651l-.0549668-.2481979 2.6173768-4.4911434.1616199-.0868181c.7862956-.4223781 1.8188165-.0343258 2.3456828.6072551.3795613.4662578.5591013 1.0598832.621659 1.6041345l-.0020446.1644767c-.1243017.8865481-1.344635 3.5529766-1.800822 4.0175231-.7369421.6551824-1.5991357.6897797-2.3470225.4383351zm9.2131835-7.2593636c.1873901-.1844391.273489-.574898.2018315-.7522327l-5.4294936-5.3938953c-.4147406-.4147406-.4155265-1.0890277-.002412-1.5098224.4154017-.4179659 1.0919658-.4195467 1.509995-.0040663l5.2984186 5.2604476c.4606537.0644862.8656619-.0203926 1.1025299-.3001745.1806914-.2136455.1598222-.4397303-.0846184-.8704263l-7.3306981-7.4531256c-.6585472.6519907-1.2294545 1.2076099-1.6670054 1.6157206-2.5754842 2.4148067-5.9564685 2.0888594-7.8060187.3004944-.7111917-.6864975-.743462-1.4281858-.2985702-1.9411692.3101994-.3509081.6505954-.6895203.8103793-.8321171l3.988303-3.98830297-2.5006128-2.49976825c-.4871401-.4877975-1.2823439-.4877975-1.7704239.00028256L3.3506194 11.8206194c-.48810753.4881075-.48810753 1.2823113-.0087831 1.7611428l3.49447994 3.3646117 1.5396535-2.638086c.04173283-.0638266.07781112-.1125811.12330057-.1601349.46816287-.5051231 1.2121589-.80193 1.977748-.8071251.7571819.0070109 1.5013367.3082631 2.121657 1.0007392.4774012.5317588.7337598 1.1401418.7972122 1.7673378.7054178.0311225 1.3578965.2767573 1.8926932.8082569.484582.4782373.7629925 1.0222051.8697308 1.5914835.6763534.0975263 1.3425826.4501405 1.935594 1.0812799.4661393.4965576.7080668 1.0757959.7742092 1.691475.6982199.1323223 1.3626082.5271512 1.7907024 1.0489371.3894913.4801947.6195604 1.0573857.7402022 1.6444116.0386582.0341498.0764429.0686156.1137824.1038059.1362766.1191117.221786.1937789.3072923.2676605.1420234.1227151.2845907.2437656.4423802.375048.348076.286959.7338389.2840221.9865474.0292885.2622352-.264948.279962-.59136.0627699-1.1901928l-5.399222-5.5357679c-.415448-.4205771-.4075071-1.1003156.01445-1.511981.4223576-.4121804 1.1009518-.4042897 1.512183.0172222l5.3861368 5.5194326c.1720247.0703148.676721-.036775.8687034-.2267175zm-1.5215922 3.8430336c-.7439398.7499032-1.8880102.7586133-2.739164.0569012-.1664966-.1385179-.3151962-.2647751-.4631305-.3925975-.0885356-.0764991-.1772343-.1539512-.3284307-.2866166-.0893649-.0836781-.1638278-.1481593-.2481952-.2160412l-.1963412-.1579756-.0385418-.2490395c-.0717324-.4635017-.2380122-.9362823-.507158-1.2681221-.30846-.3759602-.8909109-.6531428-1.3736648-.6152798l-.7600237.0596097.0613044-.7598888c.042023-.5208897-.0819736-.982912-.4328102-1.3566427-.5113508-.5442284-1.0303648-.7409559-1.5245039-.6922259l-.7359357.072575.0224442-.7391649c.0139142-.4582386-.1381741-.8890961-.5344936-1.2802321-.3875505-.3851582-.9194217-.4967788-1.5422808-.4032471l-.8630475.1295995.1230118-.8640111c.0754163-.52971-.0580777-1.0452795-.4606401-1.4936788-.3632924-.4055504-.75703-.564945-1.1553665-.5687182-.3994843.0027551-.7873646.1529143-1.00966505.3773408l-2.34000043 4.0114293-.59565352-.5735168-4.09847308-3.9463086c-.9962025-.9948599-.9962025-2.6126561-.0003375-3.6085211l8.36502748-8.3660275c.9958925-.99589247 2.6146887-.99589247 3.6091611-.00007765l3.4197748 3.4186194-.4596971.45969706-4.4727923 4.4715218c-.1497832.1348049-.455641.4390599-.7267558.7457097.0115963-.0133723.0097091-.0567475.2237539.1498655 1.3839757 1.338192 3.9842179 1.5888711 6.0148233-.3150473.5247671-.4894617 1.2567324-1.2067498 2.1016768-2.0482313l.4634394-.46154003 8.302645 8.44130465.077423.0952425c.0278047.0431121.0278047.0431121.0402703.06573.5112896.8682627.6133695 1.6523748-.0228041 2.4045719-.5787971.6836592-1.382388.8657954-2.2202985.7562491.203146.6838419-.0324709 1.5296929-.5398388 2.0290682-.4743609.4693279-1.3200862.7171896-2.0019888.580799.2922995.9319457.2159987 1.6814866-.4327223 2.3369179zm4.9813815-9.5828518l2.4915486-2.4915486c.4890559-.4877403.4890559-1.2817053-.0000275-1.7707887l-8.3636976-8.36470108C23.0412599 3.21682337 22.7299653 3.088 22.394 3.088c-.3367557 0-.6500158.1295953-.886438.3666768l-8.008 8.006c.010057-.0169556.0206079-.0303811.0299825-.042331-.0128441.0141696-.0242544.0266853-.03451.0378023-.0183776.0120786-.0345765.0302181-.0528776.0507004.2956455.1774939.6803556.3302547 1.0909367.4126978 1.1001145.2193375 2.2157651-.0496178 3.2998954-1.0651946.234721-.2186152.5266187-.4982312.8628646-.8256256.0338733-.032992.0338733-.032992.0677353-.06601354.5344182-.52130924 1.5068964-1.4882058 1.4448736-1.4293952C20.4086192 8.33059452 20.681205 8.216 20.967 8.216c.2848826 0 .5563245.1146088.7634196.3192125l7.4234124 7.5477167zm-.007664 1.8461416l-.4595876-.4672833-7.7191002-7.84845243c-.2824023.2815528-.8982828.89186403-1.2961366 1.27995873-.0342816.0334307-.0342816.0334307-.0685924.0668489-.3425474.33353-.6408606.6192915-.8823739.8442293-1.4045787 1.3157668-2.9479967 1.687846-4.44234 1.3899078-.9769668-.1961703-1.8539445-.6847768-2.2985894-1.1663217l-.4065857-.4403273.405957-.440907c.2453427-.2664649.5563047-.5704977.5864682-.5903196.0072025-.0080314 2.6813534-2.68149207 8.0224526-8.02038213C21.0677414 2.05467985 21.7123649 1.788 22.394 1.788c.679995 0 1.3207117.26514843 1.8056469.74740806l8.3649725 8.36597254c.9968334.9968334.9969441 2.6146197-.0002875 3.6095263l-3.4181639 3.4181639z"/>
</svg>