<svg xmlns="http://www.w3.org/2000/svg" width="20" height="20" viewBox="0 0 33 19">
  <g fill="#004385">
    <path d="M11.952 5.291h20.823v12.98H11.952V5.291zm19.207 11.075V7.199H13.57v9.167h2.21c.0219805.0009183 5.1483138.0009183 15.379 0z"/>
    <path d="M.2 17.41582c0-4.3906224 3.70987874-7.951 8.26-7.951 1.49241584 0 2.9291741.42362582 4.2443998 1.2061852l.2025031.1204893-.0690866.2252825c-.0515589.1681267-.0564443.3606921-.0149903.5468285l-.0173726.1840649c-.0656041.1520473-.0925719.3161986-.0793698.4847191l.0506537.6465787-.5255365-.3800543C11.1275336 11.6863069 9.8337504 11.24182 8.46 11.24182c-3.23562076 0-5.91080954 2.274543-6.36498462 5.287H15.096c.0428046.0018162.0541745-.000155.0685573-.0026486l.0990871.0121661c-.0349042.001823-.0497992.0035437-.0611506.0049802.0161149-.0012797.0390474-.0022329.0742663-.0033699-.0502698.0050649-.0592815.0097144-.1281702.0452571l.1748684-.0453129c.0488773-.0014077.07672.0042173.1034544.0117543.0161119-.0042996.0161119-.0042996.1030873-.0168263.0323237.0035165.0519887.0056558.0652637.0074628.0161685-.0000329.0347716-.0000464.0562489-.000062.0592623.0097686.0829938.0066454.1187569.0019388.0256136.0037344.0434478.0063345.0566856.008463.0273941-.0010284.0696795-.001576.1400369-.0024873.0641028.018513.075229.021467.0817015.022765.0447717-.0041554.0530803-.0033435.0604287-.0026117.0240194-.0016707.0653514-.0022668.1516385-.0035114.0190518-.0015308.0431931-.0051534.0943785-.0128281-.0166206.000274.0774791-.0004357.2822989-.0021291l.0314629.2645739c.0050971.0423733.0050971.0423733.0104176.0856648.030057.2446896.0406814.3616929.0406814.5137613 0 .4924861-.4020986.889-.897.889H1.097c-.4941706 0-.897-.3967753-.897-.889z"/>
    <path d="M8.46 9.92982c-2.57561248 0-4.678-2.0732291-4.678-4.617S5.88438752.69582 8.46.69582c2.5754434 0 4.677 2.0730632 4.677 4.617s-2.1015566 4.617-4.677 4.617zm0-7.456c-1.60146855 0-2.885 1.26485278-2.885 2.839s1.28353145 2.839 2.885 2.839c1.6010274 0 2.883-1.26441517 2.883-2.839s-1.2819726-2.839-2.883-2.839zM23.591 13.716c.099-.181.163-.382.196-.588.061-.39.008-.798-.163-1.129-.005-.01-.011-.019-.017-.026-.117-.219-.276-.393-.479-.521-.019-.013-.037-.022-.058-.033-.122-.071-.276-.142-.465-.21-.135-.05-.287-.098-.455-.146-.031-.008-.061-.018-.09-.025-.39-.116-.638-.227-.742-.334-.129-.129-.17-.323-.107-.489.114-.301.504-.379.805-.369.168.006.336.053.465.154.053.043.098.095.133.15.037.059.066.123.09.189l.508-.101.411-.081c-.028-.13-.07-.256-.127-.376-.084-.179-.2-.341-.358-.471-.041-.034-.084-.065-.131-.095-.163-.104-.348-.172-.539-.216l.1-.764h-1.15l.098.75c-.117.025-.231.057-.341.104-.642.28-.917.947-.836 1.573.034.264.134.521.295.737.091.121.2.23.331.322.01.006.02.01.027.016.304.201.664.293 1.014.396.316.094.727.189.857.52.048.113.051.233.023.351-.031.14-.105.272-.209.376-.146.148-.367.223-.658.223-.263 0-.48-.096-.644-.25-.158-.151-.263-.358-.299-.591l-.009.003-.867.194c.055.287.15.569.306.813.091.145.2.273.335.383.021.018.042.029.063.046.178.13.383.223.602.276l-.088.68h1.15l-.086-.659c.256-.052.5-.147.703-.3.169-.128.304-.296.406-.482z"/>
  </g>
</svg>