<svg xmlns="http://www.w3.org/2000/svg" width="20" height="20" viewBox="0 0 33 33">
  <path fill="#004385" d="M12.6346767.93399642c.1422592-.43047258.5205391-.78123377 1.0185602-.7851655l5.6928742-.00000916c.4764158.00151244.915377.34930134 1.0278387.81592067l.847132 3.65248258c.1089696.04342525.2207821.09030917.339738.14222296l3.1759879-1.98999327c.4073016-.25588838.9702504-.19155137 1.3106797.14887795l4.0192776 4.01930723c.3498892.34231583.4155212.9172707.1533044 1.32324707l-1.9799758 3.17825677c.0544023.1266462.0998029.2350472.1411967.337848l3.6409011.8354466c.4755885.1075375.8338214.5580153.8278086 1.0413817l-.0000017 5.6901041c-.0015175.4810323-.3587479.9242128-.8267212 1.0280303l-3.6417237.8356337c-.0447034.1103328-.0939567.2249629-.1511409.3527126l1.9900633 3.1761063c.2536671.4091892.1897398.9676657-.1509577 1.3098696l-4.0225825 4.0235814c-.3401937.3386816-.9023022.4020304-1.309771.1475513l-3.1774378-1.9909021c-.1221554.052734-.2323118.0988103-.3384985.1413216l-.8467708 3.6518466c-.1053363.4679943-.5446043.8215406-1.0294575.8291446l-5.6911943-.0000069c-.4817145-.0030201-.9224665-.3590978-1.02776-.8269351l-.8472699-3.6540302c-.1121263-.044706-.2247639-.0915598-.3390471-.14097l-3.17682304 1.991112c-.4080009.2538672-.97020262.190508-1.30939303-.1486824l-4.02409265-4.0240975c-.33850044-.3415094-.40233338-.899161-.1490093-1.3102253l1.98999438-3.1759891c-.06160315-.1388424-.10937453-.2493394-.1511633-.3512254l-3.64005108-.8352588C.50977862 20.2683652.15456246 19.8265763.15 19.34282l.0000067-5.6868329c-.00301386-.4867396.35383213-.936035.82671625-1.0433015l3.64134986-.8355479c.04351415-.1087491.09049564-.2208554.1419833-.3392851L2.78198776 8.26414887c-.26172202-.40998075-.19638243-.98192595.14855566-1.323847l4.02186686-4.02086193c.33803177-.34106345.90192668-.4050103 1.31146514-.15018417l3.1755093 1.9902907c.1209925-.05276566.2319999-.09937256.3395997-.14230553l.8556923-3.68324452zM14.4907571 2.27182l-.7715475 3.36094875c-.079699.34887122-.3422886.6437668-.6835596.7650855-.4311978.14803795-.8431514.317294-1.2258798.50488642-.3229712.1592323-.7199433.13932147-1.0281771-.05106335l-2.93092197-1.8305537-2.82933885 2.82933885 1.83054846 2.92998813c.19186963.3072912.2110037.7061952.0515538 1.0280929-.17895938.3660533-.33769397.7594799-.49397634 1.2146841-.1178236.3474285-.42140953.6192778-.77525796.6947445L2.272 14.488669v4.0093782l3.3587082.7708391c.3575524.0781207.65983193.3488001.77832605.6952837.15670632.4564466.3154409.8498732.49214733 1.2114013.16556552.3266156.1455717.7323233-.0496147 1.0431198l-1.82994704 2.919774 2.82902265 2.8290226 2.9303818-1.8307939c.3051324-.1899599.7011136-.2085603 1.0276992-.0513083.386621.1890147.7995788.3590274 1.2290689.5064958.3377956.1195737.600154.4146751.6801655.7618963l.7821854 3.3740424h3.9987134l.7821805-3.3740214c.0811592-.3501868.3413097-.6424954.6833128-.7630129.4318101-.1482481.8465949-.3185102 1.2251252-.5040152.3212855-.1606427.7212534-.1410406 1.0299739.0502185l2.9299836 1.8305457 2.8289003-2.8271448-1.829893-2.9196878c-.1958382-.3124441-.215327-.7167341-.0514166-1.0415389.1793315-.36407.3378759-.7564439.4946584-1.2141628.1180875-.3467884.4192043-.6159687.7740492-.6953167l3.363269-.7716551v-4.0083451l-3.3583352-.7696327c-.3580994-.0767355-.6614059-.3487088-.7784643-.6938992-.1580154-.4571914-.3167544-.849812-.49425-1.2138068-.1620688-.3241376-.1428835-.7241098.0502185-1.0309739l1.8304987-2.92990843-2.8293107-2.8293107-2.9320852 1.83184848c-.3075628.18903858-.7032107.20890374-1.0250092.0502475-.3851326-.1883081-.7973656-.35757898-1.2305975-.50632748-.3387843-.11939533-.5992-.41324008-.6808376-.76398923L18.5110762 2.27182h-4.0203191zM16.5 8.32782c4.5059614 0 8.172 3.6663621 8.172 8.172 0 4.5043144-3.6667148 8.172-8.172 8.172-4.5056379 0-8.172-3.6660386-8.172-8.172 0-4.5052997 3.6667003-8.172 8.172-8.172zm0 2.121c-3.3492838 0-6.049 2.700883-6.049 6.051 0 3.3499087 2.699508 6.05 6.049 6.05 3.3492837 0 6.048-2.6998829 6.048-6.05 0-3.3503255-2.6989245-6.051-6.048-6.051z"/>
</svg>