<svg xmlns="http://www.w3.org/2000/svg" width="20" height="20" viewBox="0 0 26 33">
  <path fill="#004385" d="M12.8333333 0C7.77402707 0 3.66666667 4.10735967 3.66666667 9.16666667v5.50000003h-1.1C1.1637604 14.6666667 0 15.83043 0 17.2333333v13.2C0 31.8362367 1.1637604 33 2.56666667 33H23.1c1.4029063 0 2.5666667-1.1637633 2.5666667-2.5666667v-13.2c0-1.4029033-1.1637604-2.5666666-2.5666667-2.5666666H5.86666667V9.16666667C5.86666667 5.288107 8.95477293 2.2 12.8333333 2.2 16.7118937 2.2 19.8 5.288107 19.8 9.16666667v2.20000003c-.0056103.3966995.2028128.7656895.5454601.9656765.3426473.199987.7664325.199987 1.1090798 0s.5510704-.568977.5454601-.9656765V9.16666667C22 4.10735967 17.8926396 0 12.8333333 0zM2.56666667 16.8666667H23.1c.2221589 0 .3666667.1445033.3666667.3666666v13.2c0 .2221634-.1445078.3666667-.3666667.3666667H2.56666667C2.34450773 30.8 2.2 30.6554967 2.2 30.4333333v-13.2c0-.2221633.14450773-.3666666.36666667-.3666666zm10.26666663 2.5666666c-1.8095106 0-3.29999997 1.4905-3.29999997 3.3 0 1.4242445.92446497 2.6474566 2.19999997 3.1052084v1.2947916c-.0056103.3966995.2028129.7656895.5454602.9656765.3426473.199987.7664324.199987 1.1090797 0 .3426473-.199987.5510705-.568977.5454601-.9656765v-1.2947916c1.2755351-.4577518 2.2-1.6809639 2.2-3.1052084 0-1.8095-1.4904893-3.3-3.3-3.3zm0 2.2c.6205423 0 1.1.4794534 1.1 1.1 0 .6205467-.4794577 1.1-1.1 1.1-.6205422 0-1.1-.4794533-1.1-1.1 0-.6205466.4794578-1.1 1.1-1.1z"/>
</svg>