<svg xmlns="http://www.w3.org/2000/svg" width="20" height="20" viewBox="0 0 33 19">
  <g fill="#004385">
    <path d="M11.952 5.291h20.823v12.98H11.952V5.291zm19.207 11.075V7.199H13.57v9.167h2.21c.0219805.0009183 5.1483138.0009183 15.379 0z"/>
    <path d="M.2 17.41582c0-4.3906224 3.70987874-7.951 8.26-7.951 1.49241584 0 2.9291741.42362582 4.2443998 1.2061852l.2025031.1204893-.0690866.2252825c-.0515589.1681267-.0564443.3606921-.0149903.5468285l-.0173726.1840649c-.0656041.1520473-.0925719.3161986-.0793698.4847191l.0506537.6465787-.5255365-.3800543C11.1275336 11.6863069 9.8337504 11.24182 8.46 11.24182c-3.23562076 0-5.91080954 2.274543-6.36498462 5.287H15.096c.0428046.0018162.0541745-.000155.0685573-.0026486l.0990871.0121661c-.0349042.001823-.0497992.0035437-.0611506.0049802.0161149-.0012797.0390474-.0022329.0742663-.0033699-.0502698.0050649-.0592815.0097144-.1281702.0452571l.1748684-.0453129c.0488773-.0014077.07672.0042173.1034544.0117543.0161119-.0042996.0161119-.0042996.1030873-.0168263.0323237.0035165.0519887.0056558.0652637.0074628.0161685-.0000329.0347716-.0000464.0562489-.000062.0592623.0097686.0829938.0066454.1187569.0019388.0256136.0037344.0434478.0063345.0566856.008463.0273941-.0010284.0696795-.001576.1400369-.0024873.0641028.018513.075229.021467.0817015.022765.0447717-.0041554.0530803-.0033435.0604287-.0026117.0240194-.0016707.0653514-.0022668.1516385-.0035114.0190518-.0015308.0431931-.0051534.0943785-.0128281-.0166206.000274.0774791-.0004357.2822989-.0021291l.0314629.2645739c.0050971.0423733.0050971.0423733.0104176.0856648.030057.2446896.0406814.3616929.0406814.5137613 0 .4924861-.4020986.889-.897.889H1.097c-.4941706 0-.897-.3967753-.897-.889z"/>
    <path d="M8.46 9.92982c-2.57561248 0-4.678-2.0732291-4.678-4.617S5.88438752.69582 8.46.69582c2.5754434 0 4.677 2.0730632 4.677 4.617s-2.1015566 4.617-4.677 4.617zm0-7.456c-1.60146855 0-2.885 1.26485278-2.885 2.839s1.28353145 2.839 2.885 2.839c1.6010274 0 2.883-1.26441517 2.883-2.839s-1.2819726-2.839-2.883-2.839zm11.5916488 7.35720633l.1423025-.10256583h.7380731l-1.3321753 3.651055-.1409129.0985845h-.4954894l-.1409438-.0986692-1.329659-3.6509703h.7308912l.1421311.10205488.8480001 2.51385812.8377824-2.51334717zM21.8327678 13.3281l-.15.15h-.4673099l-.15-.15V9.8784605l.15-.15h1.5968379c.2827385 0 .5200676.0419824.7124973.1284887.3795751.1723674.5740756.498414.5740756.9514345 0 .233848-.0497619.4310694-.152147.5888738-.0544849.0839768-.1206638.1587929-.1981394.2243117.0532405.0405077.0991721.0858358.1375365.1361065.0902984.1183221.1356129.2911709.1445548.5201082l.0164371.4625862c.0043264.1211386.0141721.2090467.0282456.2615339.0176085.0684777.0403937.1005193.0648256.1111419l.090191.1375605V13.3281l-.15.15h-.572983l-.1327377-.080138c-.0230369-.0437702-.0399065-.0954333-.051922-.1555108-.0113413-.0567065-.0196288-.1528412-.0262162-.2944811l-.0281822-.5753863c-.008486-.1745683-.0643158-.2752708-.165657-.3249426-.0650499-.0308131-.1853872-.0489645-.3561311-.0489645h-.9137759V13.3281zm.9302139-2.0192396c.1910573 0 .335248-.0364546.4351993-.1051328.081426-.0559491.1263329-.167252.1263329-.3507263 0-.1922591-.0607885-.3063709-.1839032-.3679318-.0723991-.0356061-.1780508-.0550512-.3165734-.0550512h-.9912695v.8788421h.9302139zm1.4958614-.869449l-.15-.15v-.4109509l.15-.15h2.7991629l.15.15v.4109509l-.15.15h-1.0124041V13.3281l-.15.15h-.4743548l-.15-.15v-2.8886886h-1.012404z"/>
  </g>
</svg>